# xmcd
#
# Track frame offsets:
#	150
#	13550
#	32377
#	47767
#	64530
#	87940
#	102542
#	119467
#	138055
#	153492
#	169352
#	184587
#	205045
#	218397
#	231687
#
# Disc length: 3337 seconds
#
# Revision: 1
# Processed by: cddbd v1.5.2PL0 Copyright (c) Steve Scherf et al.
# Submitted via: audiograbber 1.83.01
#
DISCID=c40d070f
DTITLE=Various Artist - ProMarkt - Hits der 70er Jahre
DYEAR=1996
DGENRE=Oldies 70s
TTITLE0=Ike and Tina Turner - Nutbush City Limits
TTITLE1=Don McLean - American Pie
TTITLE2=Racey - Some Girls
TTITLE3=Hot Chocolate - You Sexy Thing
TTITLE4=Dr. Hook - When You In Love With A Beautiful Woman
TTITLE5=George McCrae - Rock Your Baby
TTITLE6=Marshall Hain - Dancing In The City
TTITLE7=Gary Rafferty - Baker Street
TTITLE8=Santa Esmeralda - Don´t Let Me Be Misunderstood
TTITLE9=Mungo Jerry - In The Summertime
TTITLE10=Harpo - Movie Star
TTITLE11=Pussycat - Mississippi
TTITLE12=Mud - Dyna-mite
TTITLE13=Dr. Hook - Sexy Eyes
TTITLE14=The Kinks - Lola
EXTD=
EXTT0=
EXTT1=
EXTT2=
EXTT3=
EXTT4=
EXTT5=
EXTT6=
EXTT7=
EXTT8=
EXTT9=
EXTT10=
EXTT11=
EXTT12=
EXTT13=
EXTT14=
PLAYORDER=
